HIERARCHY
ROOT hip
{
  OFFSET 0 90.174 2.4664
  CHANNELS 6 Xposition Yposition Zposition Zrotation Xrotation Yrotation
  JOINT abdomen
  {
    OFFSET 0 -1.186 -1.5018
    CHANNELS 6 Xposition Yposition Zposition Zrotation Xrotation Yrotation
    JOINT abdomen2
    {
      OFFSET 0 9.964 0.2134
      CHANNELS 6 Xposition Yposition Zposition Zrotation Xrotation Yrotation
      JOINT chest
      {
        OFFSET 0 13.134 -3.2573
        CHANNELS 6 Xposition Yposition Zposition Zrotation Xrotation Yrotation
        JOINT neck
        {
          OFFSET 0 20.686 -1.6905
          CHANNELS 6 Xposition Yposition Zposition Zrotation Xrotation Yrotation
          JOINT head
          {
            OFFSET 0 7.238 -0.1237
            CHANNELS 6 Xposition Yposition Zposition Zrotation Xrotation Yrotation
            End Site
            {
              OFFSET 0 0 0
            }
          }
        }
        JOINT lCollar
        {
          OFFSET 1.7069 20.075 5.0056
          CHANNELS 6 Xposition Yposition Zposition Zrotation Xrotation Yrotation
          JOINT lShldr
          {
            OFFSET 13.6458 -0.047 -4.849
            CHANNELS 6 Xposition Yposition Zposition Zrotation Xrotation Yrotation
            JOINT lForeArm
            {
              OFFSET 28.3255 -0.9759 2.2888
              CHANNELS 6 Xposition Yposition Zposition Zrotation Xrotation Yrotation
              JOINT lHand
              {
                OFFSET 22.1583 -0.53 10.8316
                CHANNELS 6 Xposition Yposition Zposition Zrotation Xrotation Yrotation
                JOINT lThumb1
                {
                  OFFSET 0.786 0.112 2.5817
                  CHANNELS 6 Xposition Yposition Zposition Zrotation Xrotation Yrotation
                  JOINT lThumb2
                  {
                    OFFSET 0.3601 -0.878 4.2331
                    CHANNELS 6 Xposition Yposition Zposition Zrotation Xrotation Yrotation
                    JOINT lThumb2_End
                    {
                      OFFSET 1.8127 -1.216 2.2227
                      CHANNELS 6 Xposition Yposition Zposition Zrotation Xrotation Yrotation
                      End Site
                      {
                        OFFSET 0.0181 -0.0122 0.0222
                      }
                    }
                  }
                }
                JOINT lCarpal1
                {
                  OFFSET 0.9571 1.114 1.7695
                  CHANNELS 6 Xposition Yposition Zposition Zrotation Xrotation Yrotation
                  JOINT lIndex1
                  {
                    OFFSET 4.1246 0.487 4.1451
                    CHANNELS 6 Xposition Yposition Zposition Zrotation Xrotation Yrotation
                    JOINT lIndex2
                    {
                      OFFSET 3.4052 -1.454 2.7682
                      CHANNELS 6 Xposition Yposition Zposition Zrotation Xrotation Yrotation
                      JOINT lIndex2_End
                      {
                        OFFSET 1.4531 -1.795 1.2713
                        CHANNELS 6 Xposition Yposition Zposition Zrotation Xrotation Yrotation
                        End Site
                        {
                          OFFSET 0.0145 -0.0179 0.0127
                        }
                      }
                    }
                  }
                  JOINT lMid1
                  {
                    OFFSET 5.6954 0.21 2.1184
                    CHANNELS 6 Xposition Yposition Zposition Zrotation Xrotation Yrotation
                    JOINT lMid2
                    {
                      OFFSET 3.9766 -1.54 2.3863
                      CHANNELS 6 Xposition Yposition Zposition Zrotation Xrotation Yrotation
                      JOINT lMid2_End
                      {
                        OFFSET 1.4042 -1.926 1.125
                        CHANNELS 6 Xposition Yposition Zposition Zrotation Xrotation Yrotation
                        End Site
                        {
                          OFFSET 0.014 -0.0193 0.0113
                        }
                      }
                    }
                  }
                }
                JOINT lCarpal2
                {
                  OFFSET 2.0956 0.66 -0.3894
                  CHANNELS 6 Xposition Yposition Zposition Zrotation Xrotation Yrotation
                  JOINT lRing1
                  {
                    OFFSET 5.0395 -0.09 2.4971
                    CHANNELS 6 Xposition Yposition Zposition Zrotation Xrotation Yrotation
                    JOINT lRing2
                    {
                      OFFSET 3.7921 -1.552 1.4806
                      CHANNELS 6 Xposition Yposition Zposition Zrotation Xrotation Yrotation
                      JOINT lRing2_End
                      {
                        OFFSET 1.4655 -1.808 0.9609
                        CHANNELS 6 Xposition Yposition Zposition Zrotation Xrotation Yrotation
                        End Site
                        {
                          OFFSET 0.0147 -0.0181 0.0096
                        }
                      }
                    }
                  }
                  JOINT lPinky1
                  {
                    OFFSET 4.9141 -1.269 0.3591
                    CHANNELS 6 Xposition Yposition Zposition Zrotation Xrotation Yrotation
                    JOINT lPinky2
                    {
                      OFFSET 3.1477 -1.685 0.8462
                      CHANNELS 6 Xposition Yposition Zposition Zrotation Xrotation Yrotation
                      JOINT lPinky2_End
                      {
                        OFFSET 0.8055 -1.585 0.7955
                        CHANNELS 6 Xposition Yposition Zposition Zrotation Xrotation Yrotation
                        End Site
                        {
                          OFFSET 0.0081 -0.0158 0.008
                        }
                      }
                    }
                  }
                }
              }
            }
          }
        }
        JOINT rCollar
        {
          OFFSET -1.7069 20.075 5.0056
          CHANNELS 6 Xposition Yposition Zposition Zrotation Xrotation Yrotation
          JOINT rShldr
          {
            OFFSET -13.6458 -0.047 -4.849
            CHANNELS 6 Xposition Yposition Zposition Zrotation Xrotation Yrotation
            JOINT rForeArm
            {
              OFFSET -28.3255 -0.9759 2.2888
              CHANNELS 6 Xposition Yposition Zposition Zrotation Xrotation Yrotation
              JOINT rHand
              {
                OFFSET -22.1583 -0.53 10.8316
                CHANNELS 6 Xposition Yposition Zposition Zrotation Xrotation Yrotation
                JOINT rThumb1
                {
                  OFFSET -0.786 0.112 2.5817
                  CHANNELS 6 Xposition Yposition Zposition Zrotation Xrotation Yrotation
                  JOINT rThumb2
                  {
                    OFFSET -0.3601 -0.878 4.2331
                    CHANNELS 6 Xposition Yposition Zposition Zrotation Xrotation Yrotation
                    JOINT rThumb2_End
                    {
                      OFFSET -1.8127 -1.216 2.2227
                      CHANNELS 6 Xposition Yposition Zposition Zrotation Xrotation Yrotation
                      End Site
                      {
                        OFFSET -0.0181 -0.0122 0.0222
                      }
                    }
                  }
                }
                JOINT rCarpal1
                {
                  OFFSET -0.9571 1.114 1.7695
                  CHANNELS 6 Xposition Yposition Zposition Zrotation Xrotation Yrotation
                  JOINT rIndex1
                  {
                    OFFSET -4.1246 0.487 4.1451
                    CHANNELS 6 Xposition Yposition Zposition Zrotation Xrotation Yrotation
                    JOINT rIndex2
                    {
                      OFFSET -3.4052 -1.454 2.7682
                      CHANNELS 6 Xposition Yposition Zposition Zrotation Xrotation Yrotation
                      JOINT rIndex2_End
                      {
                        OFFSET -1.4531 -1.795 1.2713
                        CHANNELS 6 Xposition Yposition Zposition Zrotation Xrotation Yrotation
                        End Site
                        {
                          OFFSET -0.0145 -0.018 0.0127
                        }
                      }
                    }
                  }
                  JOINT rMid1
                  {
                    OFFSET -5.6954 0.21 2.1184
                    CHANNELS 6 Xposition Yposition Zposition Zrotation Xrotation Yrotation
                    JOINT rMid2
                    {
                      OFFSET -3.9766 -1.54 2.3863
                      CHANNELS 6 Xposition Yposition Zposition Zrotation Xrotation Yrotation
                      JOINT rMid2_End
                      {
                        OFFSET -1.4042 -1.926 1.125
                        CHANNELS 6 Xposition Yposition Zposition Zrotation Xrotation Yrotation
                        End Site
                        {
                          OFFSET -0.014 -0.0193 0.0113
                        }
                      }
                    }
                  }
                }
                JOINT rCarpal2
                {
                  OFFSET -2.0956 0.66 -0.3894
                  CHANNELS 6 Xposition Yposition Zposition Zrotation Xrotation Yrotation
                  JOINT rRing1
                  {
                    OFFSET -5.0395 -0.09 2.4971
                    CHANNELS 6 Xposition Yposition Zposition Zrotation Xrotation Yrotation
                    JOINT rRing2
                    {
                      OFFSET -3.7921 -1.552 1.4806
                      CHANNELS 6 Xposition Yposition Zposition Zrotation Xrotation Yrotation
                      JOINT rRing2_End
                      {
                        OFFSET -1.4655 -1.808 0.9609
                        CHANNELS 6 Xposition Yposition Zposition Zrotation Xrotation Yrotation
                        End Site
                        {
                          OFFSET -0.0147 -0.0181 0.0096
                        }
                      }
                    }
                  }
                  JOINT rPinky1
                  {
                    OFFSET -4.9141 -1.269 0.3592
                    CHANNELS 6 Xposition Yposition Zposition Zrotation Xrotation Yrotation
                    JOINT rPinky2
                    {
                      OFFSET -3.1477 -1.685 0.8462
                      CHANNELS 6 Xposition Yposition Zposition Zrotation Xrotation Yrotation
                      JOINT rPinky2_End
                      {
                        OFFSET -0.8055 -1.585 0.7955
                        CHANNELS 6 Xposition Yposition Zposition Zrotation Xrotation Yrotation
                        End Site
                        {
                          OFFSET -0.0081 -0.0158 0.008
                        }
                      }
                    }
                  }
                }
              }
            }
          }
        }
      }
    }
  }
  JOINT lThigh
  {
    OFFSET 8.367 -8.2066 0.5982
    CHANNELS 6 Xposition Yposition Zposition Zrotation Xrotation Yrotation
    JOINT lShin
    {
      OFFSET 2.1923 -43.463 -0.4932
      CHANNELS 6 Xposition Yposition Zposition Zrotation Xrotation Yrotation
      JOINT lFoot
      {
        OFFSET 0.7333 -45.8593 -2.6451
        CHANNELS 6 Xposition Yposition Zposition Zrotation Xrotation Yrotation
        End Site
        {
          OFFSET 2.6618 -4.2699 12.3931
        }
      }
    }
  }
  JOINT rThigh
  {
    OFFSET -8.367 -8.2066 0.5982
    CHANNELS 6 Xposition Yposition Zposition Zrotation Xrotation Yrotation
    JOINT rShin
    {
      OFFSET -2.1923 -43.463 -0.4931
      CHANNELS 6 Xposition Yposition Zposition Zrotation Xrotation Yrotation
      JOINT rFoot
      {
        OFFSET -0.7333 -45.8593 -2.6451
        CHANNELS 6 Xposition Yposition Zposition Zrotation Xrotation Yrotation
        End Site
        {
          OFFSET -2.6618 -4.2699 12.3931
        }
      }
    }
  }
}
MOTION
Frames:	4
Frame Time:	0.0333333
0 90.174 2.4664 0 0 -0 0 -1.186 -1.5018 0 0 -0 0 9.964 0.2134 0 0 -0 0 13.134 -3.2573 0 0 -0 0 20.686 -1.6905 0 0 -0 0 7.238 -0.1237 0 0 -0 1.7069 20.075 5.0056 0 0 -0 13.6458 -0.047 -4.849 1.66051 0.0835086 5.75766 28.3255 -0.9759 2.2888 -0.0175111 0.895433 15.7816 22.1583 -0.53 10.8316 7.95139e-016 -1.98785e-016 -0 0.786 0.112 2.5817 5.46658e-016 -3.97569e-016 -0 0.3601 -0.878 4.2331 5.96354e-016 0 -0 1.8127 -1.216 2.2227 3.97569e-016 1.98785e-016 9.54166e-015 0.9571 1.114 1.7695 1.49089e-016 -3.97569e-016 -0 4.1246 0.487 4.1451 6.4605e-016 0 3.18055e-015 3.4052 -1.454 2.7682 5.96354e-016 0 3.18055e-015 1.4531 -1.795 1.2713 8.94531e-016 -1.98785e-016 6.36111e-015 5.6954 0.21 2.1184 6.4605e-016 0 3.18055e-015 3.9766 -1.54 2.3863 5.96354e-016 0 3.18055e-015 1.4042 -1.926 1.125 8.94531e-016 -1.98785e-016 6.36111e-015 2.0956 0.66 -0.3894 1.49089e-016 -3.97569e-016 -0 5.0395 -0.09 2.4971 6.4605e-016 0 3.18055e-015 3.7921 -1.552 1.4806 5.96354e-016 0 3.18055e-015 1.4655 -1.808 0.9609 8.94531e-016 -1.98785e-016 6.36111e-015 4.9141 -1.269 0.3591 6.4605e-016 0 3.18055e-015 3.1477 -1.685 0.8462 5.96354e-016 0 3.18055e-015 0.8055 -1.585 0.7955 8.94531e-016 -1.98785e-016 6.36111e-015 -1.7069 20.075 5.0056 0 0 -0 -13.6458 -0.047 -4.849 -1.4496 0.0636048 -5.0245 -28.3255 -0.9759 2.2888 -1.74811 1.20616 -16.8394 -22.1583 -0.53 10.8316 -1.19271e-015 1.98785e-016 -3.18055e-015 -0.786 0.112 2.5817 -3.97569e-016 1.98785e-016 -3.18055e-015 -0.3601 -0.878 4.2331 -2.98177e-016 1.98785e-016 -3.18055e-015 -1.8127 -1.216 2.2227 -2.98177e-016 3.97569e-016 -0 -0.9571 1.114 1.7695 4.96962e-016 0 -6.36111e-015 -4.1246 0.487 4.1451 -9.93923e-017 3.97569e-016 -0 -3.4052 -1.454 2.7682 -8.94531e-016 5.96354e-016 -0 -1.4531 -1.795 1.2713 -3.97569e-016 3.97569e-016 -0 -5.6954 0.21 2.1184 -9.93923e-017 3.97569e-016 -0 -3.9766 -1.54 2.3863 -8.94531e-016 5.96354e-016 -0 -1.4042 -1.926 1.125 -3.97569e-016 3.97569e-016 -0 -2.0956 0.66 -0.3894 4.96962e-016 0 -6.36111e-015 -5.0395 -0.09 2.4971 -9.93923e-017 3.97569e-016 -0 -3.7921 -1.552 1.4806 -8.94531e-016 5.96354e-016 -0 -1.4655 -1.808 0.9609 -3.97569e-016 3.97569e-016 -0 -4.9141 -1.269 0.3592 -9.93923e-017 3.97569e-016 -0 -3.1477 -1.685 0.8462 -8.94531e-016 5.96354e-016 -0 -0.8055 -1.585 0.7955 -3.97569e-016 3.97569e-016 -0 8.367 -8.2066 0.5982 -4.66115 -1.03232 0.120763 2.1923 -43.463 -0.4932 0.00990601 1.55097 0.177175 0.7333 -45.8593 -2.6451 4.65196 -0.54114 -0.255042 -8.367 -8.2066 0.5982 4.66115 -1.03222 -0.120763 -2.1923 -43.463 -0.4931 -0.00990459 1.5509 -0.177176 -0.7333 -45.8593 -2.6451 -4.65196 -0.541171 0.255041 
2.26476 61.0284 6.52195 -7.06328 -6.61741 132.924 0 -1.186 -1.5018 -0.0360658 -1.92543 -0.548042 8.88178e-016 9.964 0.2134 -0.0906481 -3.85036 -1.09825 0 13.134 -3.2573 -0.0906484 -3.85036 -1.09823 0 20.686 -1.6905 7.34417 26.3117 -4.35449 -1.77636e-015 7.238 -0.1237 -3.05517e-006 -0.567218 -6.74907e-007 1.7069 20.075 5.0056 -17.7592 -7.89708 1.51704 13.6458 -0.047 -4.849 -35.6069 2.55701 -43.0613 28.3255 -0.9759 2.2888 -32.8273 38.5965 20.305 22.1583 -0.53 10.8316 -20.7718 11.1294 -4.70999 0.786 0.112 2.5817 -0 0 1.59028e-015 0.3601 -0.878 4.2331 -3.18055e-015 3.18055e-015 -7.95139e-016 1.8127 -1.216 2.2227 -1.59028e-015 -3.18055e-015 -7.95139e-016 0.9571 1.114 1.7695 1.59028e-015 0 2.38542e-015 4.1246 0.487 4.1451 1.59028e-015 6.36111e-015 2.38542e-015 3.4052 -1.454 2.7682 1.76556e-031 3.18055e-015 -3.18055e-015 1.4531 -1.795 1.2713 1.59028e-015 0 -0 5.6954 0.21 2.1184 1.59028e-015 6.36111e-015 2.38542e-015 3.9766 -1.54 2.3863 1.76556e-031 3.18055e-015 -3.18055e-015 1.4042 -1.926 1.125 1.59028e-015 0 -0 2.0956 0.66 -0.3894 1.59028e-015 0 2.38542e-015 5.0395 -0.09 2.4971 1.59028e-015 6.36111e-015 2.38542e-015 3.7921 -1.552 1.4806 1.76556e-031 3.18055e-015 -3.18055e-015 1.4655 -1.808 0.9609 1.59028e-015 0 -0 4.9141 -1.269 0.3591 1.59028e-015 6.36111e-015 2.38542e-015 3.1477 -1.685 0.8462 1.76556e-031 3.18055e-015 -3.18055e-015 0.8055 -1.585 0.7955 1.59028e-015 0 -0 -1.7069 20.075 5.0056 -6.4343 -9.30389 -12.5894 -13.6458 -0.047 -4.849 41.355 20.6916 64.2182 -28.3255 -0.9759 2.2888 43.9132 7.71025 17.3402 -22.1583 -0.53 10.8316 36.4161 4.08074 11.8731 -0.786 0.112 2.5817 6.36111e-015 0 3.18055e-015 -0.3601 -0.878 4.2331 3.18055e-015 0 -3.18055e-015 -1.8127 -1.216 2.2227 0 0 -0 -0.9571 1.114 1.7695 6.36111e-015 0 3.18055e-015 -4.1246 0.487 4.1451 5.29669e-031 -3.18055e-015 9.54166e-015 -3.4052 -1.454 2.7682 3.18055e-015 -3.18055e-015 3.18055e-015 -1.4531 -1.795 1.2713 3.53113e-031 -6.36111e-015 3.18055e-015 -5.6954 0.21 2.1184 5.29669e-031 -3.18055e-015 9.54166e-015 -3.9766 -1.54 2.3863 3.18055e-015 -3.18055e-015 3.18055e-015 -1.4042 -1.926 1.125 3.53113e-031 -6.36111e-015 3.18055e-015 -2.0956 0.66 -0.3894 6.36111e-015 0 3.18055e-015 -5.0395 -0.09 2.4971 5.29669e-031 -3.18055e-015 9.54166e-015 -3.7921 -1.552 1.4806 3.18055e-015 -3.18055e-015 3.18055e-015 -1.4655 -1.808 0.9609 3.53113e-031 -6.36111e-015 3.18055e-015 -4.9141 -1.269 0.3592 5.29669e-031 -3.18055e-015 9.54166e-015 -3.1477 -1.685 0.8462 3.18055e-015 -3.18055e-015 3.18055e-015 -0.8055 -1.585 0.7955 3.53113e-031 -6.36111e-015 3.18055e-015 8.367 -8.2066 0.5982 1.30632 -19.2854 -3.85359 2.1923 -43.463 -0.4932 -3.91856 15.0258 -2.25013 0.7333 -45.8593 -2.6451 -0.951998 -7.42432 8.98287 -8.367 -8.2066 0.5982 -0.743807 -20.8584 3.68052 -2.1923 -43.463 -0.4931 4.4911 18.3104 2.02515 -0.7333 -45.8593 -2.6451 0.0483255 -9.02 -8.82796 
-0.72221 47.886 9.1901 3.24696 -13.4406 -166.284 0 -1.186 -1.5018 -0.0774794 -2.7586 -0.740315 0 9.964 0.2134 -0.191016 -5.51594 -1.48699 0 13.134 -3.2573 -0.191016 -5.51594 -1.48698 2.22045e-016 20.686 -1.6905 12.3231 38.2205 -7.24203 -1.77636e-015 7.238 -0.1237 -2.34075e-007 -1.68808 2.66501e-007 1.7069 20.075 5.0056 -25.6604 -11.3941 2.08677 13.6458 -0.047 -4.849 -51.0672 1.15453 -64.868 28.3255 -0.9759 2.2888 -44.4012 62.1053 17.5526 22.1583 -0.53 10.8316 -30.2522 15.8073 -5.91093 0.786 0.112 2.5817 -1.85514e-006 1.58827e-006 -8.37854e-007 0.3601 -0.878 4.2331 9.27568e-007 -7.94135e-007 4.18927e-007 1.8127 -1.216 2.2227 -1.32417e-031 1.59028e-015 4.77083e-015 0.9571 1.114 1.7695 -0 0 2.38542e-015 4.1246 0.487 4.1451 -1.85514e-006 1.58827e-006 -8.37853e-007 3.4052 -1.454 2.7682 9.27568e-007 -7.94135e-007 4.18927e-007 1.4531 -1.795 1.2713 -1.32417e-031 1.59028e-015 4.77083e-015 5.6954 0.21 2.1184 -1.85514e-006 1.58827e-006 -8.37853e-007 3.9766 -1.54 2.3863 9.27568e-007 -7.94135e-007 4.18927e-007 1.4042 -1.926 1.125 -1.32417e-031 1.59028e-015 4.77083e-015 2.0956 0.66 -0.3894 -0 0 2.38542e-015 5.0395 -0.09 2.4971 -1.85514e-006 1.58827e-006 -8.37853e-007 3.7921 -1.552 1.4806 9.27568e-007 -7.94135e-007 4.18927e-007 1.4655 -1.808 0.9609 -1.32417e-031 1.59028e-015 4.77083e-015 4.9141 -1.269 0.3591 -1.85514e-006 1.58827e-006 -8.37853e-007 3.1477 -1.685 0.8462 9.27568e-007 -7.94135e-007 4.18927e-007 0.8055 -1.585 0.7955 -1.32417e-031 1.59028e-015 4.77083e-015 -1.7069 20.075 5.0056 -10.6399 -13.0498 -18.167 -13.6458 -0.047 -4.849 54.813 1.44822 83.9402 -28.3255 -0.9759 2.2888 63.3842 8.39414 31.9551 -22.1583 -0.53 10.8316 53.3528 5.29615 14.7631 -0.786 0.112 2.5817 -2.77076e-006 4.01554e-007 1.77115e-006 -0.3601 -0.878 4.2331 -1.77115e-006 -8.29165e-007 -2.77076e-006 -1.8127 -1.216 2.2227 -4.54192e-006 -4.27611e-007 -9.99614e-007 -0.9571 1.114 1.7695 2.64834e-031 9.54166e-015 -1.59028e-015 -4.1246 0.487 4.1451 -2.77076e-006 4.01554e-007 1.77115e-006 -3.4052 -1.454 2.7682 -1.77115e-006 -8.29165e-007 -2.77076e-006 -1.4531 -1.795 1.2713 -4.54192e-006 -4.27611e-007 -9.99614e-007 -5.6954 0.21 2.1184 -2.77076e-006 4.01554e-007 1.77115e-006 -3.9766 -1.54 2.3863 -1.77115e-006 -8.29165e-007 -2.77076e-006 -1.4042 -1.926 1.125 -4.54192e-006 -4.27611e-007 -9.99614e-007 -2.0956 0.66 -0.3894 2.64834e-031 9.54166e-015 -1.59028e-015 -5.0395 -0.09 2.4971 -2.77076e-006 4.01554e-007 1.77115e-006 -3.7921 -1.552 1.4806 -1.77115e-006 -8.29165e-007 -2.77076e-006 -1.4655 -1.808 0.9609 -4.54192e-006 -4.27611e-007 -9.99614e-007 -4.9141 -1.269 0.3592 -2.77076e-006 4.01554e-007 1.77115e-006 -3.1477 -1.685 0.8462 -1.77115e-006 -8.29165e-007 -2.77076e-006 -0.8055 -1.585 0.7955 -4.54192e-006 -4.27611e-007 -9.99614e-007 8.367 -8.2066 0.5982 3.07714 -27.3887 -5.81772 2.1923 -43.463 -0.4932 -5.05377 21.5397 -3.47633 0.7333 -45.8593 -2.6451 -2.673 -10.5641 13.0747 -8.367 -8.2066 0.5982 -2.17335 -29.7135 5.62541 -2.1923 -43.463 -0.4931 5.75913 26.385 3.23902 -0.7333 -45.8593 -2.6451 1.19289 -12.8907 -12.9082 
0.0442139 50.8351 8.22245 -8.56695e-015 -12.4585 180 -6.93889e-018 -1.186 -1.5018 -0.0638912 -2.48554 -0.703667 0 9.964 0.2134 -0.15859 -4.97014 -1.41211 0 13.134 -3.2573 -0.15859 -4.97014 -1.41211 0 20.686 -1.6905 11.1493 36.0171 -6.61148 0 7.238 -0.1237 2.50029e-006 -3.36386 2.22172e-006 1.7069 20.075 5.0056 -24.0134 -10.5005 1.65678 13.6458 -0.047 -4.849 -47.5306 1.48896 -59.8698 28.3255 -0.9759 2.2888 -42.4359 56.2517 18.6585 22.1583 -0.53 10.8316 -28.1292 14.7941 -5.69274 0.786 0.112 2.5817 1.96068e-006 -2.03121e-007 -1.72966e-006 0.3601 -0.878 4.2331 -3.18055e-015 3.18055e-015 -4.77083e-015 1.8127 -1.216 2.2227 -1.96068e-006 2.03121e-007 1.72966e-006 0.9571 1.114 1.7695 0 0 -7.95139e-016 4.1246 0.487 4.1451 1.96068e-006 -2.03121e-007 -1.72966e-006 3.4052 -1.454 2.7682 3.18055e-015 -6.36111e-015 -3.97569e-015 1.4531 -1.795 1.2713 -1.96068e-006 2.03121e-007 1.72966e-006 5.6954 0.21 2.1184 1.96068e-006 -2.03121e-007 -1.72966e-006 3.9766 -1.54 2.3863 3.18055e-015 -6.36111e-015 -3.97569e-015 1.4042 -1.926 1.125 -1.96068e-006 2.03121e-007 1.72966e-006 2.0956 0.66 -0.3894 0 0 -7.95139e-016 5.0395 -0.09 2.4971 1.96068e-006 -2.03121e-007 -1.72966e-006 3.7921 -1.552 1.4806 3.18055e-015 -6.36111e-015 -3.97569e-015 1.4655 -1.808 0.9609 -1.96068e-006 2.03121e-007 1.72966e-006 4.9141 -1.269 0.3591 1.96068e-006 -2.03121e-007 -1.72966e-006 3.1477 -1.685 0.8462 3.18055e-015 -6.36111e-015 -3.97569e-015 0.8055 -1.585 0.7955 -1.96068e-006 2.03121e-007 1.72966e-006 -1.7069 20.075 5.0056 -9.56958 -12.061 -16.1489 -13.6458 -0.047 -4.849 51.2052 6.80328 81.2011 -28.3255 -0.9759 2.2888 59.0815 8.40196 28.7443 -22.1583 -0.53 10.8316 47.9005 4.64792 14.6185 -0.786 0.112 2.5817 1.59028e-015 0 7.95139e-016 -0.3601 -0.878 4.2331 -1.35172e-006 -5.42574e-008 1.00268e-006 -1.8127 -1.216 2.2227 0 0 -5.1684e-015 -0.9571 1.114 1.7695 1.59028e-015 0 7.95139e-016 -4.1246 0.487 4.1451 1.59028e-015 0 3.97569e-015 -3.4052 -1.454 2.7682 -1.35172e-006 -5.42574e-008 1.00268e-006 -1.4531 -1.795 1.2713 -4.77083e-015 -3.18055e-015 3.57812e-015 -5.6954 0.21 2.1184 1.59028e-015 0 3.97569e-015 -3.9766 -1.54 2.3863 -1.35172e-006 -5.42574e-008 1.00268e-006 -1.4042 -1.926 1.125 -4.77083e-015 -3.18055e-015 3.57812e-015 -2.0956 0.66 -0.3894 1.59028e-015 0 7.95139e-016 -5.0395 -0.09 2.4971 1.59028e-015 0 3.97569e-015 -3.7921 -1.552 1.4806 -1.35172e-006 -5.42574e-008 1.00268e-006 -1.4655 -1.808 0.9609 -4.77083e-015 -3.18055e-015 3.57812e-015 -4.9141 -1.269 0.3592 1.59028e-015 0 3.97569e-015 -3.1477 -1.685 0.8462 -1.35172e-006 -5.42574e-008 1.00268e-006 -0.8055 -1.585 0.7955 -4.77083e-015 -3.18055e-015 3.57812e-015 8.367 -8.2066 0.5982 2.90402 -24.9934 -4.77375 2.1923 -43.463 -0.4932 -4.83925 20.0692 -3.18739 0.7333 -45.8593 -2.6451 -2.34275 -9.82765 11.6035 -8.367 -8.2066 0.5982 -2.09349 -27.1644 4.56217 -2.1923 -43.463 -0.4931 5.49761 24.5735 2.95343 -0.7333 -45.8593 -2.6451 1.01663 -12.0246 -11.429 
